<svg width="372" height="292" viewBox="0 0 372 292" fill="none" xmlns="http://www.w3.org/2000/svg">
<path d="M256.699 42.5121C283.69 46.3838 321.703 42.9676 343.295 56.8601C364.888 70.9804 370.511 102.409 371.411 134.522C372.536 166.634 369.162 199.202 357.241 230.404C345.32 261.378 324.852 290.985 296.961 291.44C269.07 291.896 233.532 263.2 204.743 251.357C175.953 239.514 154.135 244.297 122.871 245.891C91.831 247.258 51.5695 245.208 26.378 225.848C1.18639 206.49 -8.93521 170.278 9.28367 144.543C27.7276 119.035 74.7368 104.231 96.7793 78.9516C118.597 53.8994 115.448 18.5988 128.044 6.30047C140.865 -5.99785 169.43 4.93399 191.697 15.8658C213.965 27.0253 229.933 38.6404 256.699 42.5121Z" fill="white"/>
<g clip-path="url(#clip0_0_1)">
<path d="M272.289 145.446C272.289 185.37 239.924 217.735 200 217.735C160.076 217.735 127.711 185.37 127.711 145.446C127.711 105.522 160.076 73.1566 200 73.1566C239.924 73.1566 272.289 105.522 272.289 145.446Z" fill="#0D7AD8"/>
<path d="M251.435 152.908H247.494C244.939 152.908 242.726 154.606 242.039 157.032C236.917 175.109 220.103 188.353 200.12 188.353C176.067 188.353 156.598 169.162 156.598 145.446C156.598 121.733 176.063 102.539 200.12 102.539C220.1 102.539 236.916 115.781 242.039 133.859C242.726 136.286 244.939 137.984 247.495 137.984H251.433C255.149 137.984 257.856 134.525 256.929 130.977C250.388 105.944 227.273 87.4733 199.805 87.6153C167.388 87.7832 141.392 113.611 141.46 145.57C141.528 177.453 167.765 203.277 200.12 203.277C227.471 203.277 250.45 184.822 256.944 159.854C257.861 156.331 255.125 152.908 251.435 152.908Z" fill="white"/>
<path d="M213.831 143.306C217.243 143.942 220.048 145.648 222.246 148.424C224.443 151.2 225.542 154.381 225.542 157.966C225.542 161.205 224.733 164.067 223.113 166.554C221.552 168.983 219.267 170.892 216.26 172.28C213.253 173.667 209.696 174.361 205.59 174.361H179.48V113.812H204.463C208.569 113.812 212.096 114.477 215.046 115.807C218.053 117.137 220.308 118.988 221.812 121.359C223.373 123.73 224.154 126.419 224.154 129.427C224.154 132.954 223.2 135.904 221.292 138.275C219.441 140.646 216.954 142.323 213.831 143.306ZM191.624 138.795H202.728C205.619 138.795 207.846 138.159 209.407 136.887C210.969 135.557 211.749 133.677 211.749 131.248C211.749 128.819 210.969 126.94 209.407 125.61C207.846 124.28 205.619 123.614 202.728 123.614H191.624V138.795ZM203.855 164.472C206.805 164.472 209.089 163.778 210.708 162.39C212.386 161.002 213.224 159.036 213.224 156.492C213.224 153.889 212.357 151.865 210.622 150.419C208.887 148.916 206.545 148.164 203.595 148.164H191.624V164.472H203.855Z" fill="white"/>
</g>
<defs>
<clipPath id="clip0_0_1">
<rect width="144.578" height="144.578" fill="white" transform="translate(127.711 73.1566)"/>
</clipPath>
</defs>
</svg>
