<svg width="60" height="60" viewBox="0 0 60 60" fill="none" xmlns="http://www.w3.org/2000/svg">
<path d="M60 30C60 46.5685 46.5685 60 30 60C13.4315 60 0 46.5685 0 30C0 13.4315 13.4315 0 30 0C46.5685 0 60 13.4315 60 30Z" fill="#0D7AD8"/>
<path d="M51.3455 33.0968H49.7102C48.6496 33.0968 47.7313 33.8014 47.446 34.8083C45.3205 42.3101 38.3428 47.8065 30.0499 47.8065C20.0679 47.8065 11.9881 39.8424 11.9881 30C11.9881 20.1592 20.0663 12.1936 30.0499 12.1936C38.3416 12.1936 45.3203 17.689 47.446 25.1915C47.7313 26.1986 48.6498 26.9033 49.7105 26.9033H51.3447C52.8867 26.9033 54.0101 25.4677 53.6254 23.9956C50.911 13.6068 41.3182 5.9414 29.9191 6.00034C16.4659 6.07001 5.6775 16.7884 5.70586 30.0517C5.73413 43.2828 16.6225 54 30.0499 54C41.4006 54 50.9366 46.3413 53.6318 35.9796C54.0122 34.5172 52.8768 33.0968 51.3455 33.0968V33.0968Z" fill="white"/>
<path d="M35.74 29.112C37.156 29.376 38.32 30.084 39.232 31.236C40.144 32.388 40.6 33.708 40.6 35.196C40.6 36.54 40.264 37.728 39.592 38.76C38.944 39.768 37.996 40.56 36.748 41.136C35.5 41.712 34.024 42 32.32 42H21.484V16.872H31.852C33.556 16.872 35.02 17.148 36.244 17.7C37.492 18.252 38.428 19.02 39.052 20.004C39.7 20.988 40.024 22.104 40.024 23.352C40.024 24.816 39.628 26.04 38.836 27.024C38.068 28.008 37.036 28.704 35.74 29.112ZM26.524 27.24H31.132C32.332 27.24 33.256 26.976 33.904 26.448C34.552 25.896 34.876 25.116 34.876 24.108C34.876 23.1 34.552 22.32 33.904 21.768C33.256 21.216 32.332 20.94 31.132 20.94H26.524V27.24ZM31.6 37.896C32.824 37.896 33.772 37.608 34.444 37.032C35.14 36.456 35.488 35.64 35.488 34.584C35.488 33.504 35.128 32.664 34.408 32.064C33.688 31.44 32.716 31.128 31.492 31.128H26.524V37.896H31.6Z" fill="white"/>
</svg>
